<svg width="48" height="49" viewBox="0 0 48 49" fill="none" xmlns="http://www.w3.org/2000/svg">
<path d="M36.3707 9.35207C34.844 9.35207 33.6053 10.5907 33.6053 12.1174C33.6053 13.6454 34.844 14.8841 36.3707 14.8841C37.8987 14.8841 39.136 13.6454 39.136 12.1174C39.136 10.5907 37.8987 9.35207 36.3707 9.35207Z" fill="url(#paint0_linear_302_7301)"/>
<path d="M24.076 31.9587C19.972 31.9587 16.6333 28.6201 16.6333 24.5174C16.6333 20.4134 19.972 17.0747 24.076 17.0747C28.1787 17.0747 31.5173 20.4134 31.5173 24.5174C31.5173 28.6201 28.1787 31.9587 24.076 31.9587ZM24.076 12.8987C17.6693 12.8987 12.4573 18.1107 12.4573 24.5174C12.4573 30.9227 17.6693 36.1347 24.076 36.1347C30.4813 36.1347 35.6933 30.9227 35.6933 24.5174C35.6933 18.1107 30.4813 12.8987 24.076 12.8987Z" fill="url(#paint1_linear_302_7301)"/>
<path d="M14.464 5.36801C9.09732 5.36801 4.73198 9.73334 4.73198 15.1V33.9347C4.73198 39.3013 9.09732 43.6667 14.464 43.6667H33.2986C38.6653 43.6667 43.0306 39.3013 43.0306 33.9347V15.1C43.0306 9.73334 38.6653 5.36801 33.2986 5.36801H14.464ZM33.2986 48.1053H14.464C6.65065 48.1053 0.294647 41.748 0.294647 33.9347V15.1C0.294647 7.28534 6.65065 0.929373 14.464 0.929373H33.2986C41.112 0.929373 47.4693 7.28534 47.4693 15.1V33.9347C47.4693 41.748 41.112 48.1053 33.2986 48.1053" fill="url(#paint2_linear_302_7301)"/>
<defs>
<linearGradient id="paint0_linear_302_7301" x1="14.76" y1="-8.56793" x2="57.5441" y2="32.3836" gradientUnits="userSpaceOnUse">
<stop stop-color="#F9D76C"/>
<stop offset="0.0011048" stop-color="#F9D76C"/>
<stop offset="0.209357" stop-color="#F9A837"/>
<stop offset="0.37646" stop-color="#F03D74"/>
<stop offset="0.523815" stop-color="#E62299"/>
<stop offset="0.739443" stop-color="#6F3EA2"/>
<stop offset="1" stop-color="#4850AB"/>
</linearGradient>
<linearGradient id="paint1_linear_302_7301" x1="2.68797" y1="4.04537" x2="45.4721" y2="44.997" gradientUnits="userSpaceOnUse">
<stop stop-color="#F9D76C"/>
<stop offset="0.0011048" stop-color="#F9D76C"/>
<stop offset="0.209357" stop-color="#F9A837"/>
<stop offset="0.37646" stop-color="#F03D74"/>
<stop offset="0.523815" stop-color="#E62299"/>
<stop offset="0.739443" stop-color="#6F3EA2"/>
<stop offset="1" stop-color="#4850AB"/>
</linearGradient>
<linearGradient id="paint2_linear_302_7301" x1="2.59465" y1="4.14137" x2="45.3785" y2="45.0927" gradientUnits="userSpaceOnUse">
<stop stop-color="#F9D76C"/>
<stop offset="0.0011048" stop-color="#F9D76C"/>
<stop offset="0.209357" stop-color="#F9A837"/>
<stop offset="0.37646" stop-color="#F03D74"/>
<stop offset="0.523815" stop-color="#E62299"/>
<stop offset="0.739443" stop-color="#6F3EA2"/>
<stop offset="1" stop-color="#4850AB"/>
</linearGradient>
</defs>
</svg>
