<svg width="58" height="48" viewBox="0 0 58 48" fill="none" xmlns="http://www.w3.org/2000/svg">
<path d="M57.304 6.37604C55.4853 7.20004 53.472 7.69872 51.508 8.02805C52.44 7.87205 53.8093 6.18403 54.3573 5.50136C55.1947 4.46136 55.8907 3.27472 56.2813 1.99339C56.332 1.89339 56.3693 1.76805 56.2693 1.69205C56.1427 1.64272 56.0627 1.66804 55.9627 1.71738C53.7707 2.89204 51.5027 3.74404 49.0893 4.34804C48.8893 4.39737 48.7413 4.34805 48.6147 4.22138C48.4147 3.99605 48.2267 3.7827 48.0147 3.60803C47 2.74537 45.912 2.06803 44.6853 1.56803C43.0747 0.912027 41.3147 0.633371 39.5787 0.745371C37.8907 0.856038 36.2333 1.33071 34.736 2.11337C33.2347 2.89737 31.8947 3.98936 30.8267 5.30536C29.724 6.66803 28.9107 8.27471 28.4933 9.98004C28.092 11.6254 28.1253 13.252 28.3707 14.9147C28.408 15.1907 28.3827 15.2281 28.1333 15.1907C18.6947 13.7854 10.8707 10.4094 4.51866 3.1707C4.24266 2.85603 4.09334 2.85605 3.86667 3.19472C1.08667 7.36139 2.43601 14.0534 5.90801 17.3427C6.37201 17.7827 6.84666 18.22 7.36 18.62C7.172 18.6587 4.86267 18.4094 2.80267 17.3427C2.52667 17.168 2.388 17.2694 2.364 17.5814C2.33867 18.032 2.37734 18.4467 2.43868 18.9347C2.97201 23.1574 5.89734 27.0627 9.90267 28.588C10.3787 28.788 10.904 28.9627 11.416 29.0507C10.504 29.2507 9.56402 29.3934 6.94668 29.188C6.62135 29.1267 6.49733 29.2894 6.62133 29.6027C8.58799 34.9614 12.832 36.5574 16.012 37.4654C16.4373 37.54 16.8627 37.54 17.2907 37.64C17.264 37.6787 17.2387 37.6787 17.2147 37.716C16.16 39.3227 12.504 40.5187 10.8013 41.1134C7.70534 42.196 4.33333 42.6827 1.06133 42.3601C0.537333 42.2827 0.427992 42.2894 0.286659 42.3601C0.142659 42.4494 0.268008 42.5747 0.436008 42.7107C1.10001 43.1494 1.776 43.5374 2.46534 43.9134C4.54267 45.0147 6.70935 45.892 8.97468 46.5174C20.676 49.748 33.8547 47.3734 42.64 38.6454C49.5387 31.7907 51.9573 22.3374 51.9573 12.8734C51.9573 12.5027 52.3947 12.2987 52.6547 12.1027C54.4493 10.7547 55.8973 9.14003 57.236 7.3387C57.536 6.93336 57.54 6.57338 57.54 6.42538C57.54 6.40005 57.54 6.37604 57.54 6.37604C57.54 6.22404 57.536 6.2707 57.304 6.37604" fill="#2FBBE1"/>
</svg>
